<svg width="68" height="108" viewBox="0 0 68 108" fill="none" xmlns="http://www.w3.org/2000/svg">
<g filter="url(#filter0_d_412_442)">
<ellipse cx="31.4285" cy="42.1537" rx="14.1085" ry="12.4607" fill="#F2D8BA"/>
<path d="M31.1617 55.2293C31.3599 54.9353 31.7927 54.9353 31.9909 55.2293L58.0424 93.8741C58.2663 94.2062 58.0283 94.6536 57.6278 94.6536H5.52485C5.12434 94.6536 4.88638 94.2062 5.11026 93.8741L31.1617 55.2293Z" fill="#F2D8BA"/>
<path d="M56.6052 25.7491C56.7588 25.6465 56.8472 25.4789 56.8373 25.3089L56.0002 10.9118C55.9717 10.4217 55.2596 10.3235 55.0207 10.7766L42.8409 33.8717C42.6019 34.3248 43.1452 34.7431 43.5883 34.447L56.6052 25.7491Z" fill="#F2D8BA"/>
<path d="M8.88733 23.0657C8.75134 22.9465 8.68645 22.7713 8.71637 22.6041L11.3571 7.84663C11.4447 7.3569 12.1625 7.33587 12.3411 7.8178L21.7061 33.1009C21.8846 33.5828 21.2915 33.9406 20.8931 33.5913L8.88733 23.0657Z" fill="#F2D8BA"/>
</g>
<defs>
<filter id="filter0_d_412_442" x="0.0239258" y="0.46759" width="67.1047" height="101.186" filterUnits="userSpaceOnUse" color-interpolation-filters="sRGB">
<feFlood flood-opacity="0" result="BackgroundImageFix"/>
<feColorMatrix in="SourceAlpha" type="matrix" values="0 0 0 0 0 0 0 0 0 0 0 0 0 0 0 0 0 0 127 0" result="hardAlpha"/>
<feOffset dx="2"/>
<feGaussianBlur stdDeviation="3.5"/>
<feComposite in2="hardAlpha" operator="out"/>
<feColorMatrix type="matrix" values="0 0 0 0 0.94902 0 0 0 0 0.847059 0 0 0 0 0.729412 0 0 0 0.3 0"/>
<feBlend mode="normal" in2="BackgroundImageFix" result="effect1_dropShadow_412_442"/>
<feBlend mode="normal" in="SourceGraphic" in2="effect1_dropShadow_412_442" result="shape"/>
</filter>
</defs>
</svg>
